/* XPM */
static char *gapcoin128[] = {
/* columns rows colors chars-per-pixel */
"128 128 2 1 ",
"  c black",
". c None",
/* pixels */
"................................................................................................................................",
"................................................................................................................................",
"................................................................................................................................",
"................................................................................................................................",
"................................................................................................................................",
"................................................................................................................................",
"................................................................................................................................",
".........................................................     ....     .........................................................",
"..................................................  .....     ....     .....  ..................................................",
"...............................................     .....     ....     .....     ...............................................",
"...............................................     .....     ....     .....     ...............................................",
"......................................... .....     .....     ....     .....     ..... .........................................",
".......................................    .....     ....     ....     ....     .....    .......................................",
".....................................      .....     ....     ....     ....     .....      .....................................",
"...................................        .....     ....     ....     ....     .....        ...................................",
"..................................          .....    .....    ....    .....    .....          ..................................",
"................................            .....    .....    ....    .....    .....            ................................",
"...............................              ....     ....    ....    ....     ....              ...............................",
".............................                .....    ....    ....    ....    .....                .............................",
"..............................                ....    ....................    ....                ..............................",
"...............................               ....   ......................   ....               ...............................",
"...............................               ....................................               ...............................",
"......................... ......               ..................................               ...... .........................",
"........................   ......            ......................................            ......    .......................",
".......................     ......         ..........................................         ......     .......................",
"......................       .....       ..............................................       .....       ......................",
".....................         .....    ..................................................    .....       .......................",
"....................           .....  ....................................................  .....       ........................",
"...................            ..................................................................      .........................",
"..................              ................................................................      ....... ..................",
"..................               ..............................................................      .......  ..................",
".................                ..............................................................    .......     .................",
"................                ................................................................  .......       ................",
"................               ..............                                          .................        ................",
"...............               .............                                            ...............           ...............",
"..............               .............                                             ..............             ..............",
"..............               ............                                              .............              ..............",
".............               ............       .....................................................               .............",
".............              ............     .........................................................              .............",
"............               ............    ...........................................................              ............",
"............              ............    ........                                       .............              ............",
"...........              .............   ......                                          ..............              ...........",
"............             ............   .....                                            ..............             ............",
"..............          .............   ....                                             ...............          ..............",
".................       ............   ....                                              ...............       .................",
"...................    .............  ....                                               ................    ...................",
"...................... .............  ...                                                ................ ......................",
".........   ........................ ....                                                ...........................   .........",
".........      .........................      .......    ..............      ....................................      .........",
".........         ......................    .........    ..............     ..................................         .........",
"........             ..................    ..........    ..............     ...............................             ........",
"........             ..................   ...........    ..............     ...............................             ........",
"............         ..................   ...........    .............      ...............................         ............",
".................   ..................   ............    .............      ................................   .................",
"......................................  .............    .............      ....................................................",
".....................................................    .............      ....................................................",
".....................................................    .............      ....................................................",
".......       .......................................    .............     ......................................        .......",
".......            .................................     .............     ..................................            .......",
".......            .................................     .............     ..................................            .......",
".......            .................................     .............     ..................................            .......",
".......            .................................     .............     ..................................            .......",
".......            .................................    ..............     ..................................            .......",
".......            .................................    .............      ..................................            .......",
".......            .................................    .............      ..................................            .......",
".......            ................................     .............      ..................................            .......",
".......            ................................     .............      ..................................            .......",
".......            ................................     .............      ..................................            .......",
".......            ................................     .............      ..................................            .......",
".......             ..............................      .............      ..................................            .......",
".......             ..............................      .............      ......................................        .......",
".......             ..............................      .............      .....................................................",
".......             .............................      ..............      .....................................................",
"........            .............................      ..............      .....................................................",
"........            .............................      ..............      ............. ...................   .................",
"........             ...........................       ..............      ............  ..................         ............",
"........             ...........................       ..............       ...........  ..................             ........",
"........             ..........................        ..............       ..........   ..................             ........",
".........         ............................        ...............        .........   .................             .........",
".........      ..............................         ................        .......   ..................             .........",
".........   .................................         ................                  ..................             .........",
"...................... .....................          ................                  .................              .........",
"...................    .....................          ................                 ..................             ..........",
".................       ...................          ..................                .................              ..........",
"...............         ...................          ..................               ..................             ...........",
"............             ..................         ....................              .................              ...........",
"...........              ..................         ................. ..             ..................              ...........",
"............              ..................       .................. ...           ... ..............              ............",
"............               ............. ....     ...................  ....       ....  ..............              ............",
".............              .............  ............................ ..............  ..............              .............",
".............               ............  ............................  ............   .............               .............",
"..............               ...........   ...........................    .........   ..............              ..............",
"..............               ...........     ..  ......................     ....      ...............             ..............",
"...............               ..........        .......................              .................           ...............",
"................               ..........      .........................            ....................        ................",
"................                ..........    ...........................          .............  .......       ................",
".................                ..........................................      ..............    .......     .................",
"..................               ..............................................................      .......  ..................",
"..................              ................................................................      ....... ..................",
"...................             .................................................................      .........................",
"....................           .....  ....................................................  .....       ........................",
".....................         .....     .................................................    .....       .......................",
"......................       ......      ..............................................       .....       ......................",
".......................     ......         ..........................................         ......     .......................",
"........................   ......            ......................................            ......    .......................",
"......................... ......               ..................................               ...... .........................",
"...............................               ................................                   ...............................",
"...............................               ....   ......................                      ...............................",
"..............................                ....    ....................                        ..............................",
"..............................               .....    ....            ....                         .............................",
"...............................              ....     ....            ....                       ...............................",
"................................            .....    .....            .....                     ................................",
"..................................          .....    .....            .....                   ..................................",
"...................................         ....     .....             ....                  ...................................",
".....................................      .....     ....              ....                .....................................",
".......................................    .....     ....              ....              .......................................",
"......................................... .....     .....              .....           .........................................",
"...............................................     .....              .....        ............................................",
"...............................................     .....              .....      ..............................................",
"..................................................  .....              .....  ..................................................",
".........................................................              .........................................................",
"................................................................................................................................",
"................................................................................................................................",
"................................................................................................................................",
"................................................................................................................................",
"................................................................................................................................",
"................................................................................................................................",
"................................................................................................................................"
};
